# File created by Blade
# Date/Time:  Wed Jan 21 19:03:17 2015
#---------------------------------------------------------
:version 1.10
:name HOM
:units
  mass 1.0
  length 1.000000
  angle deg
:documentation
     Acclaim Skeleton File
:root
   axis xyz
   order TX TY TZ RX RY RZ
   position 0.000000 0.000000 0.000000
   orientation 0 0 0
:bonedata
   begin
      id 1
      name RightUpLeg_dum
      direction -1.000000 0.000000 0.000000
      length 3.693983
      axis 0.0 0.0 0.0 xyz
   end
   begin
      id 2
      name LeftUpLeg_dum
      direction 1.000000 0.000000 0.000000
      length 3.693983
      axis 0.0 0.0 0.0 xyz
   end
   begin
      id 3
      name Spine_dum
      direction 0.000000 1.000000 0.000000
      length 2.392956
      axis 0.0 0.0 0.0 xyz
   end
   begin
      id 4
      name RightUpLeg
      direction 0.000000 -1.000000 0.000000
      length 15.795667
      axis 0.0 0.0 0.0 xyz
      dof rx ry rz
   end
   begin
      id 5
      name RightLeg
      direction 0.000000 -1.000000 0.000000
      length 14.766989
      axis 0.0 0.0 0.0 xyz
      dof rx ry rz
   end
   begin
      id 6
      name RightFoot
      direction 0.000000 -0.258819 0.965926
      length 4.962790
      axis 15.0 0.0 0.0 xyz
      dof rx ry rz
   end
   begin
      id 7
      name RightToeBase
      direction 0.000000 0.000000 1.000000
      length 2.952750
      axis 0.0 0.0 0.0 xyz
      dof rx ry rz
   end
   begin
      id 8
      name LeftUpLeg
      direction 0.000000 -1.000000 0.000000
      length 15.795667
      axis 0.0 0.0 0.0 xyz
      dof rx ry rz
   end
   begin
      id 9
      name LeftLeg
      direction 0.000000 -1.000000 0.000000
      length 14.766989
      axis 0.0 0.0 0.0 xyz
      dof rx ry rz
   end
   begin
      id 10
      name LeftFoot
      direction 0.000000 -0.258819 0.965926
      length 4.962790
      axis 15.0 0.0 0.0 xyz
      dof rx ry rz
   end
   begin
      id 11
      name LeftToeBase
      direction 0.000000 0.000000 1.000000
      length 2.952750
      axis 0.0 0.0 0.0 xyz
      dof rx ry rz
   end
   begin
      id 12
      name Spine
      direction 0.000000 1.000000 0.000000
      length 0.000000
      axis 0.0 0.0 0.0 xyz
      dof rx ry rz
   end
   begin
      id 13
      name Spine_dum1
      direction 0.000000 1.000000 0.000000
      length 13.207411
      axis 0.0 0.0 0.0 xyz
   end
   begin
      id 14
      name Spine_dum2
      direction 0.000000 1.000000 0.000000
      length 13.207411
      axis 0.0 0.0 0.0 xyz
   end
   begin
      id 15
      name Spine_dum3
      direction 0.000000 1.000000 0.000000
      length 19.250100
      axis 0.0 0.0 0.0 xyz
   end
   begin
      id 16
      name RightShoulder
      direction -1.000000 0.000000 0.000000
      length 8.140465
      axis 0.0 0.0 90.0 xyz
      dof rx ry rz
   end
   begin
      id 17
      name RightArm
      direction -1.000000 0.000000 0.000000
      length 10.649840
      axis 0.0 0.0 90.0 xyz
      dof rx ry rz
   end
   begin
      id 18
      name RightForeArm
      direction -1.000000 0.000000 0.000000
      length 8.304624
      axis 0.0 0.0 90.0 xyz
      dof ry rz rx
   end
   begin
      id 19
      name RightHand
      direction -1.000000 0.000000 0.000000
      length 0.000000
      axis 0.0 0.0 90.0 xyz
      dof rx ry rz
   end
   begin
      id 20
      name RightHand_dum1
      direction -1.000000 0.000000 0.000000
      length 3.937000
      axis 0.0 0.0 90.0 xyz
   end
   begin
      id 21
      name RightHand_dum2
      direction 0.000000 0.000000 0.000000
      length 0.000000
      axis 0.0 0.0 90.0 xyz
   end
   begin
      id 22
      name RightHandThumb1
      direction 0.000000 0.000000 1.000000
      length 3.937000
      axis 0.0 0.0 90.0 xyz
      dof rx rz ry
   end
   begin
      id 23
      name LeftShoulder
      direction 1.000000 0.000000 0.000000
      length 8.140465
      axis 0.0 0.0 -90.0 xyz
      dof rx ry rz
   end
   begin
      id 24
      name LeftArm
      direction 1.000000 0.000000 0.000000
      length 10.649840
      axis 0.0 0.0 -90.0 xyz
      dof rx ry rz
   end
   begin
      id 25
      name LeftForeArm
      direction 1.000000 0.000000 0.000000
      length 8.304624
      axis 0.0 0.0 -90.0 xyz
      dof ry rz rx
   end
   begin
      id 26
      name LeftHand
      direction 1.000000 0.000000 0.000000
      length 0.000000
      axis 0.0 0.0 -90.0 xyz
      dof rx ry rz
   end
   begin
      id 27
      name LeftHand_dum1
      direction 1.000000 0.000000 0.000000
      length 3.937000
      axis 0.0 0.0 -90.0 xyz
   end
   begin
      id 28
      name LeftHand_dum2
      direction 0.000000 0.000000 0.000000
      length 0.000000
      axis 0.0 0.0 -90.0 xyz
   end
   begin
      id 29
      name LeftHandThumb1
      direction 0.000000 0.000000 1.000000
      length 3.937000
      axis 0.0 0.0 -90.0 xyz
      dof rx rz ry
   end
   begin
      id 30
      name Head
      direction 0.000000 1.000000 0.000000
      length 4.527550
      axis 0.0 0.0 0.0 xyz
      dof rx ry rz
   end
:hierarchy
   begin
      root RightUpLeg_dum LeftUpLeg_dum Spine_dum
      RightUpLeg_dum RightUpLeg
      LeftUpLeg_dum LeftUpLeg
      Spine_dum Spine
      RightUpLeg RightLeg
      RightLeg RightFoot
      RightFoot RightToeBase
      LeftUpLeg LeftLeg
      LeftLeg LeftFoot
      LeftFoot LeftToeBase
      Spine Spine_dum1 Spine_dum2 Spine_dum3
      Spine_dum1 RightShoulder
      Spine_dum2 LeftShoulder
      Spine_dum3 Head
      RightShoulder RightArm
      RightArm RightForeArm
      RightForeArm RightHand
      RightHand RightHand_dum1 RightHand_dum2
      RightHand_dum2 RightHandThumb1
      LeftShoulder LeftArm
      LeftArm LeftForeArm
      LeftForeArm LeftHand
      LeftHand LeftHand_dum1 LeftHand_dum2
      LeftHand_dum2 LeftHandThumb1
   end

# File created by Blade
# Date/Time:  Wed Jan 21 19:03:07 2015
# Frame Rate: 120.000 fps
#------------------------------------------------------
:FULLY-SPECIFIED
:DEGREES
1
root -3.055919 32.593921 -4.287527 38.354515 4.477423 1.001746
RightUpLeg -30.787484 -11.132222 8.825237
RightLeg -4.237782 -0.000000 0.000000
RightFoot -9.188683 3.592794 20.015841
RightToeBase 20.957172 -0.000000 -0.000000
LeftUpLeg -33.298305 1.393545 -2.373942
LeftLeg 0.847616 -0.000000 -0.000000
LeftFoot -9.266271 -7.619163 -7.218881
LeftToeBase 9.984785 -0.000000 -0.000000
Spine -40.975298 -2.482577 1.451667
RightShoulder -19.513440 17.687762 -48.618143
RightArm 4.847258 -17.563484 35.646451
RightForeArm 3.623996 -0.000000 -7.522820
RightHand 2.990180 0.000000 10.419003
RightHandThumb1 -24.326973 -0.000000 -32.862282
LeftShoulder -13.305639 2.629734 41.430716
LeftArm 22.523525 -15.368510 -33.062907
LeftForeArm 17.520665 -0.000000 -4.519809
LeftHand -22.374295 -0.000000 -3.170257
LeftHandThumb1 -26.253704 0.000000 33.147579
Head 6.181610 1.041161 5.755743
2
root -3.056414 32.594007 -4.284866 38.357711 4.481735 1.013994
RightUpLeg -30.780461 -11.136329 8.814158
RightLeg -4.248486 -0.000000 0.000000
RightFoot -9.165703 3.587655 20.096093
RightToeBase 20.916650 -0.000000 -0.000000
LeftUpLeg -33.289697 1.377321 -2.372063
LeftLeg 0.827232 -0.000000 -0.000000
LeftFoot -9.237070 -7.632222 -7.249629
LeftToeBase 9.989916 -0.000000 -0.000000
Spine -40.980270 -2.496021 1.446155
RightShoulder -19.499980 17.676731 -48.618480
RightArm 4.841033 -17.490101 35.666468
RightForeArm 3.592011 -0.000000 -7.508437
RightHand 2.990319 -0.000000 10.460269
RightHandThumb1 -24.326973 -0.000000 -32.862282
LeftShoulder -13.301439 2.658035 41.411633
LeftArm 22.556725 -15.350097 -33.050717
LeftForeArm 17.466646 -0.000000 -4.534434
LeftHand -22.446667 -0.000000 -3.158059
LeftHandThumb1 -26.253704 0.000000 33.147579
Head 6.197013 1.051248 5.744425
3
root -3.056690 32.594158 -4.282753 38.364178 4.485315 1.017334
RightUpLeg -30.780425 -11.141080 8.816746
RightLeg -4.258007 -0.000000 0.000000
RightFoot -9.179833 3.593915 20.038295
RightToeBase 20.943332 -0.000000 -0.000000
LeftUpLeg -33.298762 1.381001 -2.375018
LeftLeg 0.839756 -0.000000 -0.000000
LeftFoot -9.243587 -7.652680 -7.250351
LeftToeBase 10.024943 -0.000000 -0.000000
Spine -40.986411 -2.500746 1.446368
RightShoulder -19.502177 17.680119 -48.620169
RightArm 4.845217 -17.454341 35.678378
RightForeArm 3.583676 -0.000000 -7.500103
RightHand 2.990411 -0.000000 10.460227
RightHandThumb1 -24.326973 -0.000000 -32.862282
LeftShoulder -13.298763 2.631647 41.408734
LeftArm 22.556034 -15.332392 -33.052517
LeftForeArm 17.466714 -0.000000 -4.532444
LeftHand -22.427113 -0.000000 -3.186951
LeftHandThumb1 -26.253704 0.000000 33.147579
Head 6.211068 1.046693 5.727548
4
root -3.057877 32.593986 -4.280697 38.365297 4.492163 1.012607
RightUpLeg -30.772994 -11.138450 8.824122
RightLeg -4.264486 -0.000000 0.000000
RightFoot -9.191851 3.570547 19.990656
RightToeBase 20.973775 -0.000000 -0.000000
LeftUpLeg -33.296130 1.380822 -2.369774
LeftLeg 0.844950 -0.000000 -0.000000
LeftFoot -9.260145 -7.640145 -7.233130
LeftToeBase 10.004193 -0.000000 -0.000000
Spine -40.990150 -2.497729 1.448594
RightShoulder -19.505514 17.656638 -48.614899
RightArm 4.866398 -17.399866 35.682965
RightForeArm 3.560438 -0.000000 -7.497915
RightHand 2.972699 0.000000 10.465319
RightHandThumb1 -24.326973 -0.000000 -32.862282
LeftShoulder -13.281243 2.641206 41.394893
LeftArm 22.574569 -15.372571 -33.057242
LeftForeArm 17.500010 -0.000000 -4.547400
LeftHand -22.390109 -0.000000 -3.227513
LeftHandThumb1 -26.253704 0.000000 33.147579
Head 6.225651 1.038037 5.718381
5
root -3.058823 32.593754 -4.278566 38.370703 4.496650 1.013625
RightUpLeg -30.777750 -11.149035 8.830918
RightLeg -4.259407 -0.000000 0.000000
RightFoot -9.182274 3.598694 20.019421
RightToeBase 20.959399 -0.000000 -0.000000
LeftUpLeg -33.304273 1.404578 -2.384056
LeftLeg 0.856846 -0.000000 -0.000000
LeftFoot -9.263174 -7.665456 -7.222569
LeftToeBase 10.010507 -0.000000 -0.000000
Spine -40.996806 -2.505001 1.449720
RightShoulder -19.500411 17.683740 -48.618077
RightArm 4.860670 -17.427908 35.695149
RightForeArm 3.570606 -0.000000 -7.509160
RightHand 2.982454 -0.000000 10.454096
RightHandThumb1 -24.326973 -0.000000 -32.862282
LeftShoulder -13.277765 2.624363 41.395006
LeftArm 22.568955 -15.354968 -33.060111
LeftForeArm 17.469826 0.000000 -4.518328
LeftHand -22.431427 -0.000000 -3.258437
LeftHandThumb1 -26.253704 0.000000 33.147579
Head 6.235393 1.043586 5.717152
6
root -3.059969 32.593876 -4.276678 38.379719 4.499921 1.022084
RightUpLeg -30.786481 -11.157416 8.833329
RightLeg -4.254392 -0.000000 0.000000
RightFoot -9.191478 3.592783 20.015976
RightToeBase 20.960592 -0.000000 -0.000000
LeftUpLeg -33.303867 1.375975 -2.368024
LeftLeg 0.839217 -0.000000 -0.000000
LeftFoot -9.240983 -7.657961 -7.279929
LeftToeBase 10.008356 -0.000000 -0.000000
Spine -41.008376 -2.517605 1.443701
RightShoulder -19.493345 17.661593 -48.600696
RightArm 4.890569 -17.410330 35.691908
RightForeArm 3.582886 0.000000 -7.512783
RightHand 2.982122 -0.000000 10.454192
RightHandThumb1 -24.326973 -0.000000 -32.862282
LeftShoulder -13.264860 2.622570 41.387801
LeftArm 22.571016 -15.393648 -33.068374
LeftForeArm 17.480631 -0.000000 -4.517013
LeftHand -22.464514 -0.000000 -3.244000
LeftHandThumb1 -26.253704 0.000000 33.147579
Head 6.252622 1.054295 5.723869
